<?xml version="1.0" encoding="utf-8"?>
<!-- Generator: Adobe Illustrator 22.0.1, SVG Export Plug-In . SVG Version: 6.00 Build 0)  -->
<svg version="1.1" xmlns="http://www.w3.org/2000/svg" xmlns:xlink="http://www.w3.org/1999/xlink" x="0px" y="0px"
	 viewBox="0 0 800 600" style="enable-background:new 0 0 800 600;" xml:space="preserve">
<style type="text/css">
	.st0{display:none;}
	.st1{display:inline;fill:#E90000;}
	.st2{fill:#FFFFFF;stroke:#FFFFFF;stroke-width:204;stroke-linecap:round;stroke-miterlimit:10;}
	.st3{fill:none;stroke:#E90000;stroke-width:6;stroke-linecap:round;stroke-miterlimit:10;}
	.st4{fill:none;stroke:#E90000;stroke-width:2;stroke-linecap:round;stroke-miterlimit:10;}
	.st5{fill:#E90000;stroke:#E90000;stroke-width:5;stroke-linecap:round;stroke-miterlimit:10;}
	.st6{display:inline;opacity:0.32;fill:#FFFFFF;}
</style>
<g id="圖層_3" class="st0">
	<path class="st1" d="M564,549H236c-46.8,0-85-38.3-85-85V136c0-46.8,38.3-85,85-85H564c46.8,0,85,38.3,85,85V464
		C649,510.7,610.7,549,564,549z"/>
</g>
<g id="圖層_1">
	<polyline class="st2" points="482,259 400,341 318,259 	"/>
</g>
<g id="圖層_2">
	<polyline class="st3" points="464.4,252.6 430.1,287.1 401.5,314.7 	"/>
	<polyline class="st4" points="400,316 373,284 359,316 349,227 336,341 306,288 296,316 233.2,316.2 	"/>
</g>
<g id="圖層_4">
	<polyline class="st4" points="452.5,309.4 505.8,309.4 510.1,333.3 528.8,286.8 528.8,310.1 570.7,310.1 	"/>
	<circle class="st5" cx="475.1" cy="238.2" r="8.2"/>
	<polyline class="st3" points="465.1,253.5 479.4,271.1 501.9,259 	"/>
	<polyline class="st3" points="462.5,251 443.9,236.4 427.4,250.4 	"/>
	<polyline class="st3" points="452.3,307.3 459.6,284.3 432.2,284.3 	"/>
</g>
<g id="圖層_5" class="st0">
	<path class="st6" d="M564,51H236c-46.8,0-85,38.3-85,85v145.2c60.7,53.6,149.7,87.4,249,87.4s188.3-33.8,249-87.4V136
		C649,89.3,610.7,51,564,51z"/>
</g>
</svg>
